<?xml version="1.0" standalone="no"?>
<!DOCTYPE svg PUBLIC "-//W3C//DTD SVG 20010904//EN"
 "http://www.w3.org/TR/2001/REC-SVG-20010904/DTD/svg10.dtd">
<svg version="1.0" xmlns="http://www.w3.org/2000/svg"
 width="2480.000000pt" height="2480.000000pt" viewBox="0 0 2480.000000 2480.000000"
 preserveAspectRatio="xMidYMid meet">
<metadata>
Created by potrace 1.16, written by Peter Selinger 2001-2019
</metadata>
<g transform="translate(0.000000,2480.000000) scale(0.100000,-0.100000)"
fill="#000000" stroke="none">
<path d="M0 12400 l0 -12400 12400 0 12400 0 0 12400 0 12400 -12400 0 -12400
0 0 -12400z m12857 6019 c431 -35 796 -138 1184 -335 1310 -665 1987 -2149
1633 -3579 -106 -427 -315 -852 -595 -1206 -109 -139 -387 -413 -528 -522
-303 -234 -591 -387 -951 -507 -310 -103 -566 -148 -896 -157 -313 -9 -561 16
-849 86 -552 134 -1072 428 -1480 836 -445 445 -752 1022 -869 1633 -43 228
-51 321 -50 617 1 301 14 428 71 685 34 158 128 439 197 591 551 1220 1810
1967 3133 1858z m-6442 -8450 l450 -620 5 618 5 618 35 0 35 0 0 -694 c0 -650
-1 -695 -17 -705 -13 -8 -23 -8 -35 0 -10 6 -218 287 -463 624 l-445 612 -5
-618 -5 -619 -23 -3 c-54 -8 -52 -35 -52 702 0 517 3 685 12 694 35 35 44 25
503 -609z m1973 593 c8 -53 15 -52 -474 -52 l-454 0 0 -290 0 -290 328 0 c242
0 331 -3 340 -12 18 -18 14 -56 -7 -68 -12 -6 -138 -10 -338 -9 l-318 0 -3
-290 -2 -291 462 -2 463 -3 0 -35 0 -35 -489 -3 c-353 -1 -493 1 -502 9 -19
16 -21 1368 -2 1387 9 9 129 12 503 10 l490 -3 3 -23z m388 -580 c73 -332 134
-605 135 -607 2 -2 105 269 229 601 203 547 227 605 249 611 16 4 28 1 35 -9
6 -9 110 -281 231 -607 121 -325 222 -591 225 -591 3 0 63 267 134 593 71 325
131 598 134 605 5 15 54 16 69 1 12 -12 17 11 -161 -802 -68 -312 -129 -574
-136 -582 -23 -28 -50 -18 -69 28 -10 23 -117 304 -236 625 -120 321 -219 582
-220 580 -1 -2 -105 -277 -230 -613 -125 -335 -232 -616 -237 -622 -13 -17
-43 -17 -56 0 -16 19 -306 1362 -299 1381 5 12 16 16 39 14 l33 -3 131 -603z
m3288 593 c154 -33 337 -157 396 -268 28 -53 22 -77 -19 -77 -25 0 -36 9 -67
56 -38 57 -122 127 -197 166 -55 27 -181 58 -241 58 -121 0 -247 -54 -346
-146 -77 -73 -130 -159 -167 -269 -24 -71 -27 -95 -27 -210 1 -113 4 -140 27
-210 87 -263 309 -430 547 -412 165 13 327 102 411 226 29 42 39 51 65 51 70
0 47 -59 -65 -170 -215 -213 -527 -249 -766 -88 -130 86 -229 228 -277 393
-33 114 -33 306 0 420 56 193 185 355 350 439 99 51 252 67 376 41z m1514
-679 c319 -726 315 -716 253 -716 -26 0 -37 21 -302 626 -152 344 -279 626
-284 625 -4 0 -132 -281 -283 -625 -267 -608 -276 -626 -302 -626 -15 0 -33 6
-39 13 -8 11 59 173 289 697 165 375 303 687 306 692 3 5 18 8 32 6 25 -3 45
-44 330 -692z m1077 73 l450 -620 5 618 5 618 35 0 35 0 0 -694 c0 -650 -1
-695 -17 -705 -13 -8 -23 -8 -35 0 -10 6 -218 287 -463 624 l-445 612 -5 -618
-5 -619 -23 -3 c-54 -8 -52 -35 -52 702 0 517 3 685 12 694 35 35 44 25 503
-609z m883 579 c247 -568 538 -1216 543 -1211 4 5 130 288 279 631 l273 622
32 0 c19 0 35 -6 38 -14 5 -12 -567 -1339 -596 -1383 -13 -20 -45 -15 -61 10
-32 48 -604 1360 -599 1373 3 8 20 14 39 14 29 0 35 -5 52 -42z m1932 22 c6
-11 143 -322 305 -691 311 -707 308 -699 246 -699 -26 0 -37 22 -303 628 -152
345 -279 626 -283 625 -5 -1 -132 -283 -283 -627 -267 -608 -276 -626 -302
-626 -15 0 -33 6 -39 13 -8 11 59 172 289 696 165 376 302 687 305 692 11 17
54 9 65 -11z m1414 -9 c84 -30 135 -62 190 -120 60 -65 89 -129 90 -201 l1
-55 -35 0 c-34 0 -35 0 -43 54 -18 127 -116 220 -269 256 -234 55 -473 -66
-495 -252 -14 -120 72 -185 417 -318 96 -36 211 -85 255 -108 104 -54 186
-134 204 -200 61 -218 -186 -437 -494 -437 -265 0 -495 162 -499 350 l-1 55
35 0 c34 0 35 -1 41 -46 10 -66 34 -112 84 -158 55 -51 108 -78 202 -102 217
-55 460 28 537 183 31 62 33 105 6 158 -38 75 -125 122 -470 256 -238 92 -328
151 -376 250 -23 46 -26 63 -21 113 7 78 35 139 93 202 68 72 147 114 259 139
65 15 223 4 289 -19z"/>
<path d="M12390 18273 c-635 -47 -1230 -290 -1720 -701 -115 -96 -320 -306
-413 -422 -269 -335 -471 -747 -572 -1165 -102 -420 -112 -883 -30 -1303 229
-1163 1136 -2093 2295 -2352 364 -82 789 -92 1165 -29 497 83 963 292 1365
610 136 108 375 346 480 479 293 370 506 821 595 1264 75 371 83 731 24 1096
-233 1464 -1513 2544 -2994 2528 -82 -1 -170 -3 -195 -5z m-1441 -1203 c10 -5
137 -173 282 -372 145 -200 434 -599 644 -888 210 -289 406 -560 436 -602 29
-42 56 -77 59 -77 3 -1 4 48 2 108 -10 273 68 591 202 826 41 72 163 242 190
265 14 11 16 57 16 358 0 341 0 346 22 369 17 18 32 23 74 23 45 0 56 -4 73
-26 20 -25 21 -39 21 -280 0 -140 3 -254 8 -254 4 0 23 11 42 24 117 79 320
157 460 176 115 16 289 14 393 -5 371 -65 746 -319 885 -599 l33 -66 -22 -40
-23 -40 -63 0 c-61 0 -64 1 -82 33 -62 104 -92 144 -155 207 -101 100 -175
153 -301 214 -174 85 -308 119 -480 119 -229 0 -449 -78 -632 -224 l-63 -49 0
-984 0 -984 38 -34 c103 -93 252 -172 407 -216 79 -23 109 -26 245 -26 131 0
169 3 245 23 160 43 318 119 445 216 82 63 200 192 240 263 l35 62 67 0 c66 0
68 -1 84 -32 9 -18 22 -36 28 -40 7 -6 8 -10 1 -15 -6 -5 -30 -42 -55 -83 -60
-103 -235 -278 -358 -358 -151 -99 -290 -160 -467 -203 -132 -33 -391 -33
-520 -1 -375 94 -632 299 -858 684 -41 70 -208 301 -1206 1675 l-336 463 -3
-1222 -2 -1222 -27 -28 c-22 -23 -35 -28 -74 -28 -40 0 -51 4 -73 31 l-26 31
2 1386 c3 1493 0 1415 53 1441 26 13 72 13 94 1z"/>
<path d="M12730 15952 c-124 -249 -164 -414 -163 -677 0 -121 5 -185 21 -260
30 -147 82 -292 133 -368 24 -36 45 -65 45 -64 6 6 9 1429 4 1432 -4 2 -22
-26 -40 -63z"/>
</g>
</svg>
